<svg width="80" height="80" viewBox="0 0 80 80" fill="none" xmlns="http://www.w3.org/2000/svg">
<path d="M67.5 12.5H12.5C11.1739 12.5 9.90215 13.0268 8.96447 13.9645C8.02678 14.9021 7.5 16.1739 7.5 17.5V62.5C7.5 63.8261 8.02678 65.0979 8.96447 66.0355C9.90215 66.9732 11.1739 67.5 12.5 67.5H67.5C68.8261 67.5 70.0979 66.9732 71.0355 66.0355C71.9732 65.0979 72.5 63.8261 72.5 62.5V17.5C72.5 16.1739 71.9732 14.9021 71.0355 13.9645C70.0979 13.0268 68.8261 12.5 67.5 12.5ZM29 45.5C29.5304 45.8978 29.8811 46.4901 29.9749 47.1464C30.0686 47.8028 29.8978 48.4696 29.5 49C29.1022 49.5304 28.5099 49.8811 27.8536 49.9749C27.1972 50.0686 26.5304 49.8978 26 49.5L16 42C15.6895 41.7671 15.4375 41.4652 15.2639 41.118C15.0904 40.7709 15 40.3881 15 40C15 39.6119 15.0904 39.2291 15.2639 38.882C15.4375 38.5348 15.6895 38.2329 16 38L26 30.5C26.5304 30.1022 27.1972 29.9314 27.8536 30.0251C28.5099 30.1189 29.1022 30.4696 29.5 31C29.8978 31.5304 30.0686 32.1972 29.9749 32.8536C29.8811 33.5099 29.5304 34.1022 29 34.5L21.6656 40L29 45.5ZM47.4031 23.1875L37.4031 58.1875C37.3179 58.5088 37.1695 58.8098 36.9665 59.073C36.7636 59.3362 36.5102 59.5563 36.2211 59.7204C35.9321 59.8845 35.6133 59.9894 35.2832 60.0288C34.9532 60.0682 34.6186 60.0414 34.2991 59.95C33.9795 59.8586 33.6814 59.7044 33.4222 59.4964C33.1629 59.2884 32.9478 59.0308 32.7893 58.7386C32.6308 58.4465 32.5321 58.1257 32.4991 57.7949C32.4661 57.4642 32.4993 57.1302 32.5969 56.8125L42.5969 21.8125C42.7891 21.1867 43.2191 20.6612 43.7945 20.349C44.37 20.0368 45.0449 19.9628 45.6743 20.1429C46.3038 20.3229 46.8374 20.7427 47.1607 21.312C47.484 21.8813 47.571 22.5547 47.4031 23.1875ZM64 42L54 49.5C53.4696 49.8978 52.8028 50.0686 52.1464 49.9749C51.4901 49.8811 50.8978 49.5304 50.5 49C50.1022 48.4696 49.9314 47.8028 50.0251 47.1464C50.1189 46.4901 50.4696 45.8978 51 45.5L58.3344 40L51 34.5C50.7374 34.303 50.5161 34.0562 50.3488 33.7737C50.1815 33.4912 50.0716 33.1786 50.0251 32.8536C49.9787 32.5285 49.9967 32.1976 50.0782 31.8795C50.1597 31.5615 50.303 31.2626 50.5 31C50.697 30.7374 50.9438 30.5161 51.2263 30.3488C51.5088 30.1815 51.8214 30.0716 52.1464 30.0251C52.4715 29.9787 52.8024 29.9967 53.1205 30.0782C53.4385 30.1597 53.7374 30.303 54 30.5L64 38C64.3105 38.2329 64.5625 38.5348 64.7361 38.882C64.9096 39.2291 65 39.6119 65 40C65 40.3881 64.9096 40.7709 64.7361 41.118C64.5625 41.4652 64.3105 41.7671 64 42Z" fill="black"/>
</svg>
