<svg width="50" height="41" viewBox="0 0 50 41" fill="none" xmlns="http://www.w3.org/2000/svg">
<path d="M48.8141 8.45735C48.1009 6.85898 47.0826 5.39331 45.7868 4.10269C43.3048 1.63108 39.8119 0.23466 35.6898 0.0615498L35.6339 0.0596266L35.5781 0.0577035C33.4425 0.0192346 31.6198 0 29.8399 0C28.0637 0 26.2986 0.0192346 24.4461 0.0577035H24.433C24.3995 0.0577035 24.3642 0.0596266 24.3306 0.0615498C22.2901 0.150028 20.3779 0.609732 18.6464 1.42911C16.9782 2.21772 15.5148 3.31985 14.2971 4.70282C13.1596 5.99534 12.277 7.48795 11.6738 9.13442C11.2921 10.1769 11.0352 11.2521 10.903 12.3427L10.2402 12.5331C7.41389 13.3468 4.83336 15.1432 2.97524 17.5899C1.05753 20.1192 0 23.2313 0 26.3549C0 28.3072 0.398436 30.1884 1.18228 31.9483C1.89536 33.5467 2.91379 35.0123 4.20964 36.303C6.6915 38.7746 10.1843 40.171 14.3064 40.3441L14.3623 40.346L14.4182 40.348C16.5537 40.3865 18.3764 40.4057 20.1564 40.4057C21.9326 40.4057 23.6976 40.3865 25.5502 40.348H25.5632C25.5967 40.348 25.6302 40.346 25.6637 40.3441C27.7043 40.2557 29.6183 39.7959 31.3517 38.9766C33.0199 38.188 34.4833 37.0858 35.701 35.7029C36.8386 34.4103 37.7211 32.9177 38.3243 31.2713C38.706 30.2287 38.9629 29.1536 39.0951 28.063L39.7579 27.8725C42.5842 27.0589 45.1646 25.2624 47.0228 22.8158C48.9426 20.2884 50 17.1763 50 14.0526C49.9982 12.1003 49.5996 10.2173 48.8141 8.45735ZM38.4398 22.9966C38.2759 21.8253 37.0005 18.5362 34.9283 17.0263C34.9097 17.0128 34.919 16.9821 34.9432 16.9821C35.1498 16.984 35.3509 16.984 35.5558 16.9801C37.6354 16.9801 38.76 15.5529 38.76 14.2008C38.76 13.5795 38.5533 12.8832 38.0655 12.3369C37.5945 11.8118 36.7696 11.4387 35.8313 11.4214C32.3794 11.3618 28.3895 11.356 24.9395 11.4214C24.0011 11.4387 23.1763 11.8118 22.7053 12.3369C22.2175 12.8813 22.0108 13.5795 22.0108 14.2008C22.0108 14.8778 22.3459 15.551 22.7667 16.0126C23.5207 16.8416 25.0195 17.1455 25.8946 17.3225C29.0448 17.963 30.6609 18.9016 32.0275 20.3981C33.314 21.756 34.2971 23.8372 34.2971 26.3549V26.3569C34.2971 30.5442 31.32 35.0393 25.4589 35.2894C25.4589 35.2894 25.4571 35.2894 25.4534 35.2894C21.6086 35.3701 18.3411 35.3586 14.5075 35.2894C11.6663 35.1701 9.27387 34.3142 7.61309 32.6619C5.95235 31.0097 4.90227 28.8747 4.90227 26.3569C4.90227 22.1715 7.83653 18.4862 11.5602 17.4129C11.7241 18.5843 12.9994 21.8733 15.0717 23.3832C15.0903 23.3967 15.081 23.4275 15.0568 23.4275C14.8501 23.4256 14.649 23.4256 14.4442 23.4294C12.3646 23.4294 11.24 24.8566 11.24 26.2088C11.24 26.83 11.4467 27.5263 11.9344 28.0726C12.4055 28.5977 13.2303 28.9708 14.1687 28.9882C17.6205 29.0478 21.6105 29.0536 25.0605 28.9882C25.9989 28.9708 26.8237 28.5977 27.2947 28.0726C27.7825 27.5283 27.9892 26.83 27.9892 26.2088C27.9892 25.5317 27.6541 24.8585 27.2333 24.3969C26.4792 23.5679 24.9804 23.264 24.1053 23.087C20.9551 22.4465 19.339 21.5079 17.9724 20.0115C16.6859 18.6535 15.7029 16.5724 15.7029 14.0546V14.0526C15.7029 9.86532 18.6799 5.37024 24.5411 5.12017C24.5411 5.12017 24.5429 5.12017 24.5466 5.12017C28.3914 5.0394 31.6589 5.05096 35.4924 5.12017C38.3336 5.23945 40.7261 6.09536 42.3869 7.74761C44.0478 9.40178 45.0977 11.5349 45.0977 14.0526C45.0977 18.238 42.1653 21.9233 38.4398 22.9966Z" fill="#17121F"/>
</svg>
